# Blender v2.78 (sub 0) OBJ File: 'assembly.blend'
# www.blender.org
mtllib left_patella.mtl
o FJ3275_BP49813_FMA24487_Left_patella
v -0.606266 3.784860 -1.120711
v -0.626855 3.776760 -1.149711
v -0.605925 3.820650 -1.153041
v -0.615394 3.843280 -1.136421
v -0.623027 3.839110 -1.173651
v -0.623653 3.879740 -1.144841
v -0.619683 3.869490 -1.168131
v -0.639662 3.891870 -1.176450
v -0.638216 3.898610 -1.157691
v -0.624478 3.739440 -1.092941
v -0.635329 3.732130 -1.074231
v -0.629036 3.759840 -1.085271
v -0.649286 3.865499 -1.188181
v -0.686601 3.927220 -1.095681
v -0.699130 3.922360 -1.079501
v -0.673699 3.900190 -1.189350
v -0.677265 3.924310 -1.165121
v -0.709219 3.945590 -1.131481
v -0.688419 3.683130 -1.092661
v -0.663606 3.733640 -1.049991
v -0.685228 3.729330 -1.032371
v -0.683015 3.736070 -1.032111
v -0.681957 3.748110 -1.037821
v -0.689977 3.715130 -1.043971
v -0.696040 3.734159 -1.023611
v -0.697626 3.742930 -1.025081
v -0.700157 3.726900 -1.023981
v -0.659566 3.722040 -1.057851
v -0.692943 3.827980 -1.066181
v -0.710622 3.784320 -1.186091
v -0.714465 3.848190 -1.206711
v -0.716321 3.918430 -1.189061
v -0.749410 3.961920 -1.070201
v -0.729744 3.961730 -1.080371
v -0.732631 3.950000 -1.150561
v -0.750600 3.982960 -1.100891
v -0.754663 3.981750 -1.081361
v -0.713812 3.669670 -1.091891
v -0.725493 3.664320 -1.090901
v -0.737340 3.676890 -1.069231
v -0.724380 3.662450 -1.097381
v -0.729639 3.667450 -1.115831
v -0.714576 3.739490 -1.017461
v -0.719257 3.729419 -1.014711
v -0.724298 3.721600 -1.017241
v -0.738462 3.734580 -1.012091
v -0.734431 3.819800 -1.041531
v -0.766025 3.855690 -1.047381
v -0.741467 3.883430 -1.053171
v -0.787586 3.889719 -1.222401
v -0.777190 3.950340 -1.068901
v -0.797939 3.945480 -1.074621
v -0.772725 3.996090 -1.094761
v -0.772999 3.982750 -1.076181
v -0.788527 3.991740 -1.082521
v -0.790823 3.979580 -1.076971
v -0.799152 3.971520 -1.078601
v -0.811032 4.004220 -1.101531
v -0.789129 3.993469 -1.130251
v -0.810468 4.004670 -1.123421
v -0.756714 3.643550 -1.090851
v -0.756886 3.648270 -1.079531
v -0.763535 3.719719 -1.009011
v -0.778306 3.702739 -1.021021
v -0.794422 3.716630 -1.012041
v -0.751109 3.691520 -1.148211
v -0.782692 3.733830 -1.011381
v -0.785740 3.718850 -1.170581
v -0.818986 3.793980 -1.043951
v -0.798694 3.852490 -1.059211
v -0.830042 3.851570 -1.087191
v -0.790628 3.815200 -1.212481
v -0.810442 3.874470 -1.071771
v -0.806547 3.859910 -1.225471
v -0.818574 3.949419 -1.084891
v -0.820501 3.994830 -1.094631
v -0.829648 4.000450 -1.143260
v -0.822771 3.960650 -1.184961
v -0.859312 4.002150 -1.121261
v -0.855881 4.007630 -1.131871
v -0.794540 3.626470 -1.082481
v -0.799665 3.623750 -1.089781
v -0.810042 3.632980 -1.067631
v -0.821328 3.621410 -1.106141
v -0.824705 3.637710 -1.123520
v -0.827673 3.747500 -1.027301
v -0.869591 3.812580 -1.096691
v -0.858469 3.853550 -1.104961
v -0.852252 3.907230 -1.099031
v -0.884107 3.894090 -1.114281
v -0.879479 3.899940 -1.227511
v -0.897885 3.973690 -1.131051
v -0.893057 3.933039 -1.217521
v -0.910869 3.994740 -1.158161
v -0.892109 3.987150 -1.175061
v -0.845505 3.617100 -1.081781
v -0.849362 3.638460 -1.061091
v -0.835864 3.614970 -1.098961
v -0.843096 3.617990 -1.106101
v -0.868580 3.627270 -1.112280
v -0.874610 3.623540 -1.100071
v -0.881373 3.690250 -1.051471
v -0.855615 3.652510 -1.134261
v -0.871778 3.680530 -1.147271
v -0.876052 3.780270 -1.076081
v -0.895672 3.783770 -1.088581
v -0.917646 3.833350 -1.209771
v -0.939026 3.901240 -1.212231
v -0.950799 3.969910 -1.156221
v -0.935766 3.968390 -1.180921
v -0.947540 3.951710 -1.185571
v -0.915831 3.992630 -1.151331
v -0.929517 3.985910 -1.164211
v -0.945949 3.972900 -1.169201
v -0.885294 3.634660 -1.083271
v -0.888820 3.656220 -1.067711
v -0.886199 3.646870 -1.124951
v -0.907636 3.654480 -1.119411
v -0.919354 3.680940 -1.135771
v -0.930602 3.730990 -1.077931
v -0.952755 3.849040 -1.128351
v -0.978832 3.900440 -1.138941
v -0.994785 3.905770 -1.169961
v -0.985460 3.922340 -1.144941
v -0.964833 3.953750 -1.166941
v -0.948353 3.686740 -1.109611
v -0.967638 3.708510 -1.119331
v -0.966926 3.710530 -1.103271
v -0.997201 3.761019 -1.103481
v -1.004340 3.771140 -1.140001
v -1.005470 3.798800 -1.114920
v -1.006760 3.762630 -1.116441
v -1.015290 3.782110 -1.129441
v -1.021210 3.804890 -1.131121
v -0.985882 3.768240 -1.154131
v -1.019140 3.854070 -1.141371
v -1.018960 3.852060 -1.148181
v -1.017080 3.814350 -1.148671
v -1.020990 3.826489 -1.132061
v -1.022240 3.833660 -1.139671
v -1.018710 3.840790 -1.133631
v -1.018100 3.809990 -1.125181
v -0.991599 3.842100 -1.180161
v -1.005750 3.855090 -1.170941
v -1.009670 3.821050 -1.161781
v -1.016380 3.834260 -1.156711
v -0.997922 3.880850 -1.136891
v -1.004620 3.892720 -1.144161
v -1.001470 3.900700 -1.143891
v -1.006830 3.897680 -1.156791
v -1.007800 3.891330 -1.150271
v -1.007000 3.898640 -1.150411
v -1.008450 3.874910 -1.143381
v -1.007810 3.873120 -1.164201
v -0.997193 3.918290 -1.152151
v -1.000330 3.912270 -1.157801
v -1.016930 3.787090 -1.117991
v -0.606266 3.784860 -1.120711
v -0.605925 3.820650 -1.153041
v -0.623653 3.879740 -1.144841
v -0.619683 3.869490 -1.168131
v -0.624478 3.739440 -1.092941
v -0.624478 3.739440 -1.092941
v -0.635329 3.732130 -1.074231
v -0.686601 3.927220 -1.095681
v -0.688419 3.683130 -1.092661
v -0.729744 3.961730 -1.080371
v -0.754663 3.981750 -1.081361
v -0.724380 3.662450 -1.097381
v -0.910869 3.994740 -1.158161
v -0.950799 3.969910 -1.156221
v -0.915831 3.992630 -1.151331
v -0.929517 3.985910 -1.164211
v -0.945949 3.972900 -1.169201
v -0.997201 3.761019 -1.103481
v -1.020990 3.826489 -1.132061
v -1.018100 3.809990 -1.125181
v -1.016930 3.787090 -1.117991
v -1.016930 3.787090 -1.117991
v -1.016930 3.787090 -1.117991
vn 0.7746 -0.4755 -0.4171
vn 0.5340 -0.4994 -0.6823
vn 0.7363 -0.2450 -0.6308
vn 0.8549 -0.0040 0.5188
vn 0.8546 0.1670 0.4916
vn 0.7429 0.1609 0.6497
vn 0.6726 -0.6051 -0.4259
vn 0.7954 0.2898 0.5323
vn 0.9476 0.2599 0.1859
vn 0.9002 0.4327 -0.0488
vn 0.8572 0.5113 0.0617
vn 0.5198 -0.1591 -0.8394
vn 0.6306 0.0977 -0.7699
vn 0.2576 -0.1846 -0.9485
vn 0.3930 0.0930 -0.9148
vn 0.6294 0.7729 0.0804
vn 0.6995 0.7090 -0.0892
vn 0.6843 0.3653 0.6312
vn 0.7187 0.3069 0.6239
vn 0.5732 0.5269 -0.6276
vn 0.3228 0.4702 -0.8214
vn 0.4465 0.8256 -0.3451
vn 0.7114 0.0178 0.7026
vn 0.4806 -0.7801 0.4006
vn 0.6585 -0.7472 0.0899
vn 0.6151 -0.7536 0.2317
vn 0.5446 -0.7107 -0.4454
vn 0.5762 0.3015 0.7597
vn 0.6634 -0.0234 0.7479
vn 0.5724 -0.5125 0.6401
vn 0.2635 -0.5519 -0.7912
vn 0.2488 -0.3756 -0.8928
vn 0.5156 0.2436 0.8215
vn 0.5407 0.2851 0.7914
vn 0.1824 0.2740 -0.9443
vn 0.4848 0.4625 0.7424
vn 0.5260 0.8371 -0.1502
vn 0.2430 0.6739 -0.6977
vn 0.3625 0.8152 -0.4517
vn 0.5648 0.8211 -0.0825
vn 0.6141 0.0173 0.7890
vn 0.5316 -0.4278 0.7310
vn 0.3561 -0.7365 0.5752
vn 0.4580 -0.0447 0.8878
vn 0.4473 0.3061 0.8404
vn 0.4113 -0.5030 0.7602
vn 0.2731 0.2332 0.9333
vn 0.2581 0.3069 0.9161
vn 0.2054 0.2060 0.9568
vn 0.2318 0.6676 -0.7075
vn 0.2319 0.3571 0.9048
vn -0.1562 0.1889 0.9695
vn 0.6296 0.7625 0.1488
vn 0.2903 0.6256 0.7241
vn 0.5752 0.8003 0.1690
vn 0.3230 0.9259 0.1961
vn 0.3814 0.8148 -0.4365
vn 0.3766 -0.6665 0.6433
vn 0.4158 -0.7882 0.4538
vn 0.4669 -0.7454 0.4759
vn 0.4818 -0.8224 0.3027
vn 0.4601 -0.7143 0.5273
vn 0.4018 -0.7549 -0.5183
vn 0.4609 -0.8146 -0.3522
vn 0.2655 -0.6373 0.7234
vn 0.2739 -0.1561 0.9490
vn 0.1652 -0.6603 0.7327
vn 0.0727 -0.2589 0.9632
vn 0.0968 0.2001 0.9750
vn -0.0803 0.2149 0.9733
vn 0.0684 -0.4590 -0.8858
vn 0.0517 -0.3357 -0.9405
vn -0.1894 0.2591 0.9471
vn -0.4132 0.1275 0.9017
vn 0.0562 -0.1400 -0.9886
vn -0.3916 0.1576 0.9065
vn -0.2408 0.2967 0.9241
vn 0.0774 0.5280 0.8457
vn -0.0541 0.6833 0.7281
vn -0.0540 0.9193 0.3899
vn -0.3610 0.4598 0.8113
vn 0.2189 0.9549 -0.2004
vn -0.4513 0.1034 0.8864
vn -0.3746 0.6888 0.6206
vn -0.0910 0.9946 -0.0508
vn 0.1959 0.8353 -0.5137
vn 0.4633 -0.8862 -0.0028
vn 0.3210 -0.8697 0.3750
vn 0.2211 -0.6653 0.7131
vn 0.3167 -0.9439 -0.0930
vn 0.2420 -0.8226 -0.5145
vn 0.1041 -0.6372 -0.7636
vn -0.1967 -0.2213 0.9552
vn -0.1804 -0.5549 0.8121
vn -0.3758 0.2131 0.9019
vn -0.1315 -0.4405 -0.8881
vn -0.4909 0.4293 0.7581
vn -0.5266 0.2251 0.8197
vn -0.5811 0.0673 0.8110
vn -0.5903 0.1855 0.7856
vn -0.4847 0.0319 0.8741
vn -0.4048 0.2462 0.8807
vn -0.1038 0.4599 -0.8819
vn -0.0605 -0.9111 0.4078
vn 0.0371 -0.9875 -0.1532
vn -0.0670 -0.5462 -0.8349
vn -0.4316 -0.1725 0.8854
vn -0.3994 0.2296 0.8875
vn -0.4029 0.4185 0.8140
vn -0.4563 0.5173 0.7240
vn -0.3923 0.1097 0.9133
vn -0.3556 0.0679 0.9322
vn -0.0879 0.0516 -0.9948
vn -0.4300 0.1150 -0.8955
vn -0.0337 0.7708 -0.6362
vn -0.1028 0.8596 -0.5004
vn -0.4010 0.9041 0.1478
vn -0.3482 0.9367 0.0370
vn -0.4464 0.4221 0.7890
vn -0.4759 -0.4393 0.7619
vn -0.5323 -0.7013 0.4742
vn -0.0497 -0.8464 -0.5302
vn -0.2228 -0.7359 -0.6394
vn -0.4201 -0.9000 -0.1163
vn -0.2641 -0.5923 -0.7612
vn -0.5228 -0.7113 -0.4698
vn -0.6958 -0.7178 0.0250
vn -0.3737 -0.5201 -0.7680
vn -0.3053 0.4390 0.8450
vn -0.1755 0.2383 0.9552
vn -0.2240 -0.2974 -0.9281
vn -0.4841 -0.1889 -0.8544
vn -0.4630 0.5019 0.7306
vn -0.6626 0.7490 -0.0056
vn -0.6647 0.7431 -0.0771
vn -0.7179 0.5861 -0.3757
vn -0.3241 0.6177 -0.7166
vn -0.5067 0.4499 -0.7354
vn -0.5009 0.5953 -0.6283
vn -0.5334 0.8453 0.0302
vn -0.2634 0.7427 -0.6156
vn -0.6898 -0.4605 0.5587
vn -0.7003 -0.6284 -0.3386
vn -0.4810 -0.4268 -0.7658
vn -0.3402 0.2555 0.9050
vn -0.7193 0.0417 -0.6935
vn -0.3778 0.2668 0.8866
vn -0.1613 0.1709 0.9720
vn -0.7736 0.5681 0.2809
vn -0.6101 0.3349 0.7181
vn -0.3851 0.3742 0.8436
vn -0.6905 0.2969 -0.6596
vn -0.8609 -0.4963 0.1115
vn -0.6787 -0.3437 0.6490
vn -0.7325 -0.4553 -0.5060
vn -0.9037 -0.3626 -0.2277
vn -0.3399 0.2037 0.9181
vn -0.7866 -0.2926 0.5438
vn -0.9480 -0.3183 0.0031
vn -0.4472 0.2099 0.8695
vn -0.4596 0.2595 0.8494
vn -0.9939 -0.0896 0.0637
vn -0.8691 -0.2273 -0.4393
vn -0.9104 0.0807 0.4059
vn -0.9036 0.0545 0.4248
vn -0.6691 -0.2487 -0.7004
vn -0.9017 0.3467 0.2583
vn -0.8788 0.2717 0.3924
vn -0.9273 0.2081 -0.3113
vn -0.9986 0.0471 -0.0246
vn -0.9389 0.1509 -0.3094
vn -0.8723 -0.0551 -0.4858
vn -0.7250 0.2498 0.6418
vn -0.5087 0.2287 0.8300
vn -0.9449 0.0772 0.3182
vn -0.9179 0.3109 0.2466
vn -0.7573 0.1951 0.6232
vn -0.8392 0.4631 -0.2852
vn -0.9332 0.2288 -0.2771
vn -0.9840 0.1058 0.1434
usemtl mtl1.053
s 1
f 1//1 2//2 3//3
f 10//4 158//5 12//6
f 162//7 2//2 1//1
f 4//8 12//6 158//5
f 158//5 159//9 4//8
f 4//8 159//9 7//10
f 4//8 7//10 6//11
f 2//2 5//12 3//3
f 161//13 3//3 5//12
f 31//14 5//12 2//2
f 5//12 31//14 13//15
f 14//16 6//11 9//17
f 165//18 4//8 160//19
f 5//12 13//15 161//13
f 6//11 7//10 9//17
f 7//10 8//20 9//17
f 8//20 161//13 13//15
f 8//20 13//15 16//21
f 9//17 17//22 14//16
f 12//6 11//23 10//4
f 19//24 163//25 164//26
f 2//2 162//7 166//27
f 23//28 20//29 11//23
f 23//28 11//23 12//6
f 28//30 19//24 164//26
f 11//23 20//29 28//30
f 12//6 4//8 23//28
f 2//2 66//31 30//32
f 4//8 29//33 23//28
f 30//32 31//14 2//2
f 15//34 29//33 4//8
f 50//35 16//21 13//15
f 13//15 31//14 50//35
f 15//34 4//8 165//18
f 165//18 34//36 15//34
f 8//20 17//22 9//17
f 14//16 17//22 18//37
f 17//22 8//20 16//21
f 17//22 16//21 32//38
f 32//38 16//21 50//35
f 17//22 35//39 18//37
f 18//37 36//40 14//16
f 23//28 22//41 20//29
f 28//30 20//29 22//41
f 28//30 22//41 21//42
f 24//43 28//30 21//42
f 21//42 22//41 25//44
f 25//44 22//41 26//45
f 26//45 22//41 23//28
f 21//42 27//46 24//43
f 27//46 21//42 25//44
f 26//45 43//47 25//44
f 24//43 19//24 28//30
f 23//28 29//33 47//48
f 49//49 29//33 15//34
f 47//48 29//33 49//49
f 78//50 32//38 50//35
f 32//38 78//50 35//39
f 33//51 49//49 15//34
f 49//49 33//51 51//52
f 36//40 167//53 14//16
f 15//34 34//36 33//51
f 37//54 33//51 34//36
f 36//40 168//55 167//53
f 36//40 18//37 35//39
f 35//39 17//22 32//38
f 168//55 36//40 53//56
f 35//39 59//57 36//40
f 19//24 24//43 40//58
f 40//58 38//59 19//24
f 38//59 39//60 41//61
f 39//60 38//59 40//58
f 39//60 40//58 62//62
f 41//61 39//60 62//62
f 2//2 166//27 42//63
f 41//61 19//24 38//59
f 169//64 42//63 166//27
f 27//46 45//65 24//43
f 27//46 25//44 44//66
f 44//66 25//44 43//47
f 64//67 24//43 45//65
f 63//68 45//65 44//66
f 45//65 27//46 44//66
f 46//69 63//68 44//66
f 43//47 46//69 44//66
f 63//68 64//67 45//65
f 67//70 63//68 46//69
f 67//70 46//69 47//48
f 26//45 23//28 47//48
f 43//47 26//45 47//48
f 46//69 43//47 47//48
f 66//31 68//71 30//32
f 72//72 31//14 30//32
f 48//73 47//48 49//49
f 48//73 51//52 52//74
f 31//14 74//75 50//35
f 48//73 49//49 51//52
f 52//74 51//52 57//76
f 57//76 51//52 56//77
f 56//77 51//52 54//78
f 33//51 54//78 51//52
f 37//54 54//78 33//51
f 54//78 37//54 53//56
f 53//56 36//40 59//57
f 55//79 54//78 53//56
f 58//80 55//79 53//56
f 56//77 54//78 55//79
f 76//81 56//77 55//79
f 76//81 55//79 58//80
f 57//76 56//77 76//81
f 53//56 60//82 58//80
f 57//76 75//83 52//74
f 79//84 58//80 80//85
f 79//84 76//81 58//80
f 35//39 78//50 59//57
f 53//56 59//57 60//82
f 77//86 59//57 78//50
f 77//86 60//82 59//57
f 58//80 60//82 80//85
f 169//64 61//87 42//63
f 62//62 61//87 41//61
f 61//87 62//62 81//88
f 62//62 40//58 83//89
f 81//88 62//62 83//89
f 81//88 82//90 61//87
f 83//89 40//58 64//67
f 84//91 85//92 42//63
f 42//63 61//87 82//90
f 82//90 84//91 42//63
f 68//71 66//31 85//92
f 65//93 63//68 67//70
f 63//68 65//93 64//67
f 40//58 24//43 64//67
f 64//67 65//93 97//94
f 66//31 42//63 85//92
f 2//2 42//63 66//31
f 67//70 47//48 48//73
f 86//95 65//93 67//70
f 86//95 67//70 48//73
f 104//96 72//72 68//71
f 69//97 86//95 48//73
f 72//72 30//32 68//71
f 52//74 70//98 48//73
f 70//98 52//74 73//99
f 69//97 48//73 70//98
f 71//100 69//97 70//98
f 73//99 71//100 70//98
f 72//72 74//75 31//14
f 89//101 73//99 52//74
f 73//99 89//101 71//100
f 52//74 75//83 89//101
f 75//83 92//102 89//101
f 93//103 78//50 50//35
f 80//85 60//82 77//86
f 81//88 96//104 82//90
f 81//88 83//89 96//104
f 97//94 83//89 64//67
f 96//104 98//105 82//90
f 82//90 98//105 84//91
f 103//106 68//71 85//92
f 102//107 97//94 65//93
f 102//107 65//93 86//95
f 68//71 103//106 104//96
f 86//95 69//97 120//108
f 120//108 102//107 86//95
f 69//97 87//109 105//110
f 88//111 87//109 71//100
f 87//109 69//97 71//100
f 71//100 89//101 88//111
f 90//112 88//111 89//101
f 89//101 92//102 90//112
f 91//113 93//103 50//35
f 74//75 91//113 50//35
f 108//114 93//103 91//113
f 92//102 57//76 76//81
f 75//83 57//76 92//102
f 93//103 95//115 78//50
f 78//50 95//115 77//86
f 79//84 92//102 76//81
f 80//85 77//86 95//115
f 80//85 95//115 94//116
f 112//117 79//84 80//85
f 112//117 80//85 170//118
f 172//119 92//102 79//84
f 83//89 97//94 96//104
f 116//120 115//121 97//94
f 97//94 115//121 96//104
f 99//122 84//91 98//105
f 84//91 99//122 85//92
f 85//92 100//123 103//106
f 85//92 99//122 100//123
f 96//104 101//124 98//105
f 98//105 101//124 99//122
f 101//124 100//123 99//122
f 100//123 117//125 103//106
f 101//124 118//126 100//123
f 118//126 117//125 100//123
f 126//127 118//126 101//124
f 102//107 116//120 97//94
f 117//125 104//96 103//106
f 117//125 119//128 104//96
f 87//109 106//129 105//110
f 120//108 69//97 105//110
f 106//129 120//108 105//110
f 106//129 87//109 121//130
f 121//130 87//109 88//111
f 104//96 107//131 72//72
f 107//131 74//75 72//72
f 107//131 91//113 74//75
f 143//132 108//114 107//131
f 108//114 91//113 107//131
f 172//119 109//133 92//102
f 171//134 114//135 125//136
f 93//103 110//137 95//115
f 108//114 111//138 93//103
f 111//138 110//137 93//103
f 110//137 111//138 174//139
f 125//136 174//139 111//138
f 113//140 112//117 170//118
f 112//117 113//140 171//134
f 171//134 113//140 114//135
f 173//141 94//116 95//115
f 173//141 95//115 110//137
f 174//139 173//141 110//137
f 101//124 96//104 115//121
f 116//120 128//142 115//121
f 115//121 126//127 101//124
f 117//125 118//126 119//128
f 126//127 115//121 128//142
f 127//143 119//128 118//126
f 128//142 116//120 102//107
f 128//142 102//107 120//108
f 119//128 127//143 135//144
f 121//130 120//108 106//129
f 120//108 121//130 131//145
f 107//131 104//96 119//128
f 107//131 119//128 135//144
f 107//131 135//144 143//132
f 144//146 108//114 143//132
f 88//111 90//112 121//130
f 147//147 121//130 122//148
f 155//149 149//150 124//151
f 123//152 108//114 144//146
f 92//102 121//130 90//112
f 92//102 109//133 124//151
f 109//133 155//149 124//151
f 122//148 121//130 92//102
f 124//151 122//148 92//102
f 171//134 125//136 155//149
f 123//152 111//138 108//114
f 123//152 125//136 111//138
f 126//127 127//143 118//126
f 126//127 128//142 127//143
f 128//142 132//153 127//143
f 128//142 120//108 129//154
f 132//153 130//155 127//143
f 132//153 128//142 129//154
f 130//155 135//144 127//143
f 133//156 130//155 132//153
f 175//157 120//108 131//145
f 129//154 157//158 132//153
f 132//153 178//159 133//156
f 179//160 175//157 131//145
f 142//161 179//160 131//145
f 178//159 134//162 133//156
f 130//155 133//156 138//163
f 180//164 177//165 134//162
f 133//156 134//162 138//163
f 145//166 135//144 130//155
f 147//147 131//145 121//130
f 136//167 153//168 154//169
f 140//170 137//171 146//172
f 137//171 144//146 146//172
f 141//173 131//145 147//147
f 141//173 147//147 136//167
f 137//171 154//169 144//146
f 154//169 137//171 136//167
f 138//163 145//166 130//155
f 138//163 140//170 146//172
f 141//173 139//174 131//145
f 176//175 141//173 140//170
f 140//170 141//173 136//167
f 137//171 140//170 136//167
f 142//161 131//145 139//174
f 177//165 176//175 134//162
f 134//162 176//175 140//170
f 140//170 138//163 134//162
f 135//144 145//166 143//132
f 145//166 144//146 143//132
f 146//172 145//166 138//163
f 146//172 144//146 145//166
f 147//147 122//148 124//151
f 147//147 124//151 149//150
f 152//176 149//150 155//149
f 149//150 148//177 147//147
f 148//177 149//150 152//176
f 156//178 150//179 152//176
f 150//179 156//178 123//152
f 153//168 147//147 148//177
f 148//177 151//180 153//168
f 153//168 151//180 154//169
f 154//169 151//180 150//179
f 150//179 123//152 154//169
f 151//180 148//177 152//176
f 150//179 151//180 152//176
f 153//168 136//167 147//147
f 123//152 144//146 154//169
f 156//178 152//176 155//149
f 125//136 156//178 155//149
f 156//178 125//136 123//152
