# Blender v2.78 (sub 0) OBJ File: 'assembly.blend'
# www.blender.org
mtllib pubic_symph_mk1.mtl
o Cylinder_Cylinder.002
v 0.148618 7.887496 -1.257423
v -0.150823 7.894363 -1.274390
v 0.149726 7.896946 -1.273159
v -0.149715 7.903813 -1.290127
v 0.150808 7.907257 -1.288084
v -0.148633 7.914124 -1.305051
v 0.151847 7.918265 -1.301962
v -0.147594 7.925132 -1.318929
v 0.152826 7.929798 -1.314574
v -0.146615 7.936666 -1.331542
v 0.153730 7.941674 -1.325721
v -0.145711 7.948542 -1.342689
v 0.154545 7.953705 -1.335228
v -0.144896 7.960573 -1.352196
v 0.155257 7.965702 -1.342945
v -0.144184 7.972569 -1.359913
v 0.155856 7.977476 -1.348750
v -0.143585 7.984344 -1.365717
v 0.156332 7.988840 -1.352551
v -0.143109 7.995708 -1.369519
v 0.156678 7.999616 -1.354289
v -0.142763 8.006484 -1.371257
v 0.156888 8.009634 -1.353935
v -0.142553 8.016501 -1.370903
v 0.156958 8.018735 -1.351497
v -0.142483 8.025602 -1.368464
v 0.156888 8.026776 -1.347011
v -0.142553 8.033644 -1.363978
v 0.156679 8.033631 -1.340549
v -0.142762 8.040499 -1.357517
v 0.156335 8.039191 -1.332214
v -0.143106 8.046059 -1.349181
v 0.155859 8.043368 -1.322134
v -0.143582 8.050236 -1.339102
v 0.155261 8.046097 -1.310472
v -0.144180 8.052964 -1.327440
v 0.154549 8.047335 -1.297409
v -0.144892 8.054202 -1.314377
v 0.153735 8.047062 -1.283152
v -0.145706 8.053929 -1.300120
v 0.152832 8.045281 -1.267927
v -0.146610 8.052149 -1.284894
v 0.151853 8.042024 -1.251972
v -0.147588 8.048891 -1.268940
v 0.150814 8.037337 -1.235541
v -0.148627 8.044205 -1.252508
v 0.149732 8.031299 -1.218890
v -0.149709 8.038166 -1.235858
v 0.148624 8.024002 -1.202285
v -0.150817 8.030869 -1.219252
v 0.147507 8.015562 -1.185985
v -0.151934 8.022429 -1.202953
v 0.146398 8.006112 -1.170249
v -0.153043 8.012980 -1.187217
v 0.145316 7.995802 -1.155324
v -0.154125 8.002669 -1.172292
v 0.144277 7.984794 -1.141446
v -0.155164 7.991661 -1.158414
v 0.143298 7.973260 -1.128834
v -0.156143 7.980128 -1.145802
v 0.142394 7.961385 -1.117687
v -0.157047 7.968252 -1.134654
v 0.141580 7.949353 -1.108179
v -0.157862 7.956221 -1.125147
v 0.140867 7.937356 -1.100463
v -0.158574 7.944223 -1.117430
v 0.140268 7.925582 -1.094658
v -0.159173 7.932449 -1.111626
v 0.139792 7.914218 -1.090857
v -0.159649 7.921085 -1.107825
v 0.139447 7.903442 -1.089119
v -0.159994 7.910309 -1.106087
v 0.139237 7.893425 -1.089473
v -0.160204 7.900292 -1.106440
v 0.139166 7.884324 -1.091912
v -0.160275 7.891191 -1.108879
v 0.139236 7.876282 -1.096397
v -0.160205 7.883149 -1.113365
v 0.139445 7.869427 -1.102859
v -0.159996 7.876295 -1.119827
v 0.139790 7.863868 -1.111195
v -0.159651 7.870735 -1.128163
v 0.140265 7.859690 -1.121274
v -0.159176 7.866557 -1.138241
v 0.140863 7.856961 -1.132936
v -0.158578 7.863829 -1.149904
v 0.141575 7.855723 -1.145999
v -0.157866 7.862591 -1.162967
v 0.142389 7.855997 -1.160256
v -0.157052 7.862864 -1.177223
v 0.143293 7.857777 -1.175481
v -0.156148 7.864645 -1.192449
v 0.144272 7.861035 -1.191436
v -0.155169 7.867903 -1.208404
v 0.145310 7.865721 -1.207868
v -0.154131 7.872588 -1.224835
v 0.146392 7.871759 -1.224518
v -0.153049 7.878627 -1.241486
v 0.147501 7.879056 -1.241124
v -0.151941 7.885924 -1.258091
vn 0.0095 -0.8575 -0.5143
vn 0.0133 -0.8231 -0.5677
vn 0.0172 -0.7840 -0.6206
vn 0.0212 -0.7386 -0.6738
vn 0.0255 -0.6852 -0.7279
vn 0.0301 -0.6209 -0.7833
vn 0.0351 -0.5422 -0.8395
vn 0.0406 -0.4435 -0.8954
vn 0.0463 -0.3186 -0.9467
vn 0.0522 -0.1606 -0.9856
vn 0.0573 0.0340 -0.9978
vn 0.0606 0.2579 -0.9643
vn 0.0605 0.4867 -0.8715
vn 0.0568 0.6857 -0.7256
vn 0.0504 0.8318 -0.5527
vn 0.0428 0.9237 -0.3807
vn 0.0351 0.9735 -0.2259
vn 0.0281 0.9953 -0.0928
vn 0.0218 0.9996 0.0204
vn 0.0161 0.9930 0.1170
vn 0.0111 0.9796 0.2007
vn 0.0065 0.9615 0.2746
vn 0.0022 0.9400 0.3411
vn -0.0018 0.9155 0.4022
vn -0.0057 0.8882 0.4595
vn -0.0095 0.8576 0.5143
vn -0.0133 0.8231 0.5677
vn -0.0172 0.7840 0.6206
vn -0.0212 0.7386 0.6738
vn -0.0255 0.6852 0.7279
vn -0.0301 0.6210 0.7833
vn -0.0351 0.5421 0.8396
vn -0.0406 0.4435 0.8954
vn -0.0463 0.3186 0.9467
vn -0.0522 0.1606 0.9856
vn -0.0573 -0.0340 0.9978
vn -0.0606 -0.2580 0.9643
vn -0.0605 -0.4866 0.8715
vn -0.0568 -0.6857 0.7256
vn -0.0504 -0.8319 0.5527
vn -0.0428 -0.9236 0.3809
vn -0.0351 -0.9735 0.2260
vn -0.0281 -0.9953 0.0928
vn -0.0218 -0.9996 -0.0204
vn -0.0161 -0.9930 -0.1170
vn -0.0111 -0.9796 -0.2007
vn -0.0065 -0.9615 -0.2746
vn -0.0022 -0.9400 -0.3411
vn -0.9981 0.0229 -0.0566
vn 0.0018 -0.9155 -0.4022
vn 0.0057 -0.8882 -0.4595
vn 0.9981 -0.0229 0.0566
usemtl None
s off
f 1//1 2//1 4//1 3//1
f 3//2 4//2 6//2 5//2
f 5//3 6//3 8//3 7//3
f 7//4 8//4 10//4 9//4
f 9//5 10//5 12//5 11//5
f 11//6 12//6 14//6 13//6
f 13//7 14//7 16//7 15//7
f 15//8 16//8 18//8 17//8
f 17//9 18//9 20//9 19//9
f 19//10 20//10 22//10 21//10
f 21//11 22//11 24//11 23//11
f 23//12 24//12 26//12 25//12
f 25//13 26//13 28//13 27//13
f 27//14 28//14 30//14 29//14
f 29//15 30//15 32//15 31//15
f 31//16 32//16 34//16 33//16
f 33//17 34//17 36//17 35//17
f 35//18 36//18 38//18 37//18
f 37//19 38//19 40//19 39//19
f 39//20 40//20 42//20 41//20
f 41//21 42//21 44//21 43//21
f 43//22 44//22 46//22 45//22
f 45//23 46//23 48//23 47//23
f 47//24 48//24 50//24 49//24
f 49//25 50//25 52//25 51//25
f 51//26 52//26 54//26 53//26
f 53//27 54//27 56//27 55//27
f 55//28 56//28 58//28 57//28
f 57//29 58//29 60//29 59//29
f 59//30 60//30 62//30 61//30
f 61//31 62//31 64//31 63//31
f 63//32 64//32 66//32 65//32
f 65//33 66//33 68//33 67//33
f 67//34 68//34 70//34 69//34
f 69//35 70//35 72//35 71//35
f 71//36 72//36 74//36 73//36
f 73//37 74//37 76//37 75//37
f 75//38 76//38 78//38 77//38
f 77//39 78//39 80//39 79//39
f 79//40 80//40 82//40 81//40
f 81//41 82//41 84//41 83//41
f 83//42 84//42 86//42 85//42
f 85//43 86//43 88//43 87//43
f 87//44 88//44 90//44 89//44
f 89//45 90//45 92//45 91//45
f 91//46 92//46 94//46 93//46
f 93//47 94//47 96//47 95//47
f 95//48 96//48 98//48 97//48
f 4//49 2//49 100//49 98//49 96//49 94//49 92//49 90//49 88//49 86//49 84//49 82//49 80//49 78//49 76//49 74//49 72//49 70//49 68//49 66//49 64//49 62//49 60//49 58//49 56//49 54//49 52//49 50//49 48//49 46//49 44//49 42//49 40//49 38//49 36//49 34//49 32//49 30//49 28//49 26//49 24//49 22//49 20//49 18//49 16//49 14//49 12//49 10//49 8//49 6//49
f 97//50 98//50 100//50 99//50
f 99//51 100//51 2//51 1//51
f 1//52 3//52 5//52 7//52 9//52 11//52 13//52 15//52 17//52 19//52 21//52 23//52 25//52 27//52 29//52 31//52 33//52 35//52 37//52 39//52 41//52 43//52 45//52 47//52 49//52 51//52 53//52 55//52 57//52 59//52 61//52 63//52 65//52 67//52 69//52 71//52 73//52 75//52 77//52 79//52 81//52 83//52 85//52 87//52 89//52 91//52 93//52 95//52 97//52 99//52
