# Blender v2.78 (sub 0) OBJ File: ''
# www.blender.org
mtllib colored_cube.mtl
o Cube
v -0.040000 -0.040000 -0.040000
v -0.040000 0.040000 -0.040000
v 0.040000 0.040000 -0.040000
v 0.040000 -0.040000 -0.040000
v -0.040000 -0.040000 0.040000
v -0.040000 0.040000 0.040000
v 0.040000 0.040000 0.040000
v 0.040000 -0.040000 0.040000
vn 0.0000 0.0000 -1.0000
vn 0.0000 0.0000 1.0000
vn 0.0000 1.0000 -0.0000
vn -0.0000 -1.0000 0.0000
vn -1.0000 0.0000 0.0000
vn 1.0000 -0.0000 -0.0000
usemtl Material
s off
f 1//1 2//1 3//1 4//1
usemtl Material.001
f 5//2 8//2 7//2 6//2
usemtl Material.002
f 2//3 6//3 7//3 3//3
usemtl Material.003
f 5//4 1//4 4//4 8//4
usemtl Material.004
f 1//5 5//5 6//5 2//5
usemtl Material.005
f 3//6 7//6 8//6 4//6
